<svg width="150" height="150" viewBox="0 0 150 150" fill="none" xmlns="http://www.w3.org/2000/svg">
<g clip-path="url(#clip0_113_3)">
<path d="M133.56 36.7148L118.667 44.9729L133.56 52.9486L129.678 59.8656L115.209 51.1841L115.632 67.9825H107.727L108.151 51.1841L93.8227 59.8656L89.7995 53.0898L104.481 44.9729L89.7995 36.856L93.6815 30.0802L108.151 38.9029L107.727 21.9633H115.632L115.209 38.9029L129.537 30.0802L133.56 36.7148Z" fill="#CB4D4C"/>
<path d="M49.6611 40.3837C71.464 40.3837 83.6497 58.4234 83.6497 85.4231C83.6497 115.529 70.3888 132.135 50.0792 132.135C36.221 132.135 25.4092 124.728 22.4822 111.467H31.8007C34.19 119.591 40.8205 124.668 50.0792 124.728C66.3269 124.788 75.8843 109.317 75.1077 83.2727C71.5834 90.9186 62.9818 99.1021 49.7806 99.1021C32.5772 99.1021 20.0929 87.6332 20.0929 69.6533C20.0929 51.6734 33.2343 40.3837 49.6611 40.3837ZM29.0529 69.6533C29.0529 82.974 38.1922 91.4562 50.5571 91.4562C62.6831 91.4562 71.7029 82.3766 71.7029 69.8325C71.7029 57.169 62.6831 47.731 50.139 47.8505C38.1922 47.9699 29.0529 56.3327 29.0529 69.6533Z" fill="#CB4D4C"/>
</g>
<defs>
<clipPath id="clip0_113_3">
<rect width="150" height="150" fill="white"/>
</clipPath>
</defs>
</svg>
